<?xml version="1.0" encoding="utf-8"?>
<!-- Generator: Adobe Illustrator 17.0.0, SVG Export Plug-In . SVG Version: 6.00 Build 0)  -->
<!DOCTYPE svg PUBLIC "-//W3C//DTD SVG 1.1//EN" "http://www.w3.org/Graphics/SVG/1.1/DTD/svg11.dtd">
<svg version="1.1" id="Layer_1" xmlns="http://www.w3.org/2000/svg" xmlns:xlink="http://www.w3.org/1999/xlink" x="0px" y="0px"
	 width="417px" height="156px" viewBox="0 0 417 156" enable-background="new 0 0 417 156" xml:space="preserve">
<g>
	<rect x="142.386" y="14.001" fill="#FFFFFF" width="3.836" height="127.96"/>
	<path fill="#FFFFFF" d="M388.367,78.182v26.913c-3.856,1.37-9.359,2.2-15.013,2.2c-19.776,0-32.057-10.973-32.057-28.605
		c0-18.145,12.986-28.976,34.719-28.976c9.195,0,17.842,1.791,26.466,5.495l1.785,0.758V38.861l-0.899-0.285
		c-9.119-2.813-18.771-4.244-28.686-4.244c-32.33,0-54.894,18.661-54.894,45.387c0,25.688,20.993,42.963,52.235,42.963
		c12.609,0,26.085-2.565,36.047-6.845l0.78-0.333V78.182H388.367z M311.3,101.368c-8.023,3.943-15.238,5.716-23.423,5.716
		c-18.943,0-31.183-11.228-31.183-28.605c0-17.604,12.475-28.971,31.762-28.971c9.367,0,14.592,2.369,21.819,5.659l1.806,0.813
		V38.889l-0.823-0.318c-6.457-2.431-12.66-4.45-23.246-4.45c-30.608,0-52.826,18.868-52.826,44.867
		c0,26.823,19.397,43.484,50.601,43.484c9.788,0,15.834-1.514,26.946-6.742l0.763-0.351l-0.414-14.892L311.3,101.368z
		 M199.356,69.972c-8.622-3.707-16.069-6.908-16.069-12.713c0-7,8.435-7.75,12.061-7.75c7.306,0,14.955,1.76,22.741,5.223
		l1.803,0.802V38.75l-0.778-0.337c-6.351-2.732-15.23-4.292-24.355-4.292c-22.66,0-32.976,12.645-32.976,24.398
		c0,15.023,13.47,20.908,25.357,26.092c9.048,3.955,16.872,7.374,16.872,13.825c0,6.37-7.768,8.648-15.033,8.648
		c-8.857,0-18.796-5.124-23.925-8.168l-1.929-1.14v16.609l0.616,0.37c7.276,4.368,13.791,7.718,25.683,7.718
		c21.584,0,36.098-10.172,36.098-25.305C225.521,81.235,211.008,74.994,199.356,69.972"/>
	<polygon fill="#ED2524" points="54.617,69.227 53.672,69.709 53.543,71.128 54.968,69.468 	"/>
	<polyline fill="#ED2524" points="52.819,68.614 52.932,67.197 53.879,66.726 54.233,66.959 	"/>
	<polygon fill="#FFFFFF" points="69.173,7.411 68.274,7.937 7.15,42.806 7.204,113.316 69.294,148.589 131.034,113.153 
		130.846,42.739 	"/>
	<path fill="#ED2524" d="M111.98,74.525L72.852,14.007c10.601,6.066,41.052,23.493,50.934,29.168L111.98,74.525z M110.056,78.618
		c-1.2,1.841-38.227,58.109-41.017,62.309c-2.788-4.2-39.79-60.468-41.009-62.309c1.197-1.874,38.209-59.071,41.009-63.404
		C71.829,19.547,108.857,76.745,110.056,78.618 M26.074,74.578L14.265,43.229c9.877-5.674,40.348-23.102,50.932-29.168
		L26.074,74.578z M23.474,78.583l-0.086,0.144l0.056,0.067l-12.397,31.662V45.491L23.474,78.583z M26.027,82.432l39.153,59.521
		c-10.713-6.132-41.305-23.631-51.013-29.179L26.027,82.432z M112.066,82.486l11.884,30.342
		c-9.733,5.548-40.333,23.046-51.033,29.177L112.066,82.486z M114.71,78.909l-0.04-0.162l-0.121-0.162l12.619-33.042v64.965
		L114.71,78.909z"/>
	<path fill="#FFFFFF" d="M47.513,74.745c-0.856,1.099-3.503,4.418-6.548,6.542c1.467-0.037,4.483-0.715,7.773-4.395
		c-0.071-0.456-0.071-0.792-0.028-1.119C48.485,75.601,47.879,75.089,47.513,74.745"/>
	<path fill="#FFFFFF" d="M51.93,87.541c-0.563,0-2.344,1.106-2.068,1.782c0.275,0.64,0.833,0.859,0.682,2.148
		c-0.116,0.566-0.444,1.678-1.51,1.296c-1.313-0.458-1.104-3.975-0.839-5.47c0.379-2.424,0.73-5.817,0.232-8.973v-0.019
		c-1.894,1.883-3.624,2.878-5.033,3.38h-0.038c0.222,2.018,0.222,4.123,0.417,5.308c0.285,1.654,0,8.374,4.894,8.821
		c1.929,0.144,3.72-0.808,4.366-3.159C53.579,90.673,53.334,87.541,51.93,87.541"/>
	<path fill="#FFFFFF" d="M65.599,85.951c-0.313,0.728-0.844,1.842-0.844,1.842s0.725,0.758,1.856,1.232c0,0-0.189-4.755-0.144-5.392
		C66.468,83.634,65.842,85.491,65.599,85.951"/>
	<path fill="#FFFFFF" d="M91.798,90.807c-0.346,0.851-0.583,2.423-0.604,2.923c-0.109,1.495,0.003,2.854,0.323,3.808
		c0.445,1.328,0.25,2.081,0.25,2.081c0.793-0.45,0.354-1.589,0.263-2.89c-0.068-1.34,0.202-4.206,0.745-5.6
		c0.568-1.415,0.275-2.393,0.275-2.393C92.775,89.685,92.197,89.859,91.798,90.807"/>
	<path fill="#FFFFFF" d="M65.582,99.241c-0.338,0.05-0.583,0.784-0.697,1.403c0.697-0.069,1.328-0.189,1.73-0.377
		C66.423,99.852,66.034,99.188,65.582,99.241"/>
	<path fill="#FFFFFF" d="M64.918,96.911c-0.775-0.551-2.924-2.808-5.091-3.687c0,0,0.27,2.842,0.066,3.888
		c-0.288,1.443-0.465,2.369-0.202,2.851c0.268-0.45,0.705-1.093,1.285-1.101c0.255-0.025,0.508,0.083,0.725,0.326
		c0.182,0.174,0.348,0.434,0.432,0.712c0.237-0.48,0.636-0.982,1.192-1.03c0.566-0.033,0.942,0.449,1.172,0.972
		c0.194-0.523,0.49-1.073,0.985-1.144c0.798-0.111,1.336,0.728,1.588,1.225h0.008c0.374-0.652-0.205-1.768-0.205-3.011
		C66.872,96.911,65.69,97.46,64.918,96.911"/>
	<path fill="#FFFFFF" d="M60.975,99.425c-0.27,0.007-0.626,0.497-0.879,0.967c0.217,0.114,0.472,0.182,0.851,0.212
		c0.22,0.013,0.495,0.039,0.801,0.083c-0.048-0.439-0.205-0.851-0.442-1.119L60.975,99.425z"/>
	<path fill="#FFFFFF" d="M63.357,99.439c-0.452,0.044-0.768,0.736-0.945,1.245c0.573,0.062,1.19,0.062,1.793,0
		C64.074,100.162,63.761,99.426,63.357,99.439"/>
	<path fill="#FFFFFF" d="M67.963,91.47c-0.139,0.232,0.348,0.847,0.967,1.357c0.29-0.721,0.316-1.226,0.164-1.59
		C68.632,91.195,68.067,91.202,67.963,91.47"/>
	<path fill="#FFFFFF" d="M67.036,93.238c-0.187,0.328,0.275,0.994,0.725,1.437c0.202-0.247,0.364-0.515,0.548-0.846
		c0.134-0.168,0.235-0.333,0.326-0.472C68.019,93.099,67.221,92.941,67.036,93.238"/>
	<path fill="#FFFFFF" d="M66.102,94.864l-0.232,0.141c-0.088,0.194,0.111,0.658,0.369,1.111c0.328-0.101,0.72-0.453,1.136-0.917
		C66.915,94.947,66.423,94.803,66.102,94.864"/>
	<path fill="#FFFFFF" d="M89.638,99.271c-0.318,0.048-0.629,0.754-0.758,1.344c0.619-0.04,1.268-0.16,1.695-0.37
		C90.373,99.776,90.048,99.241,89.638,99.271"/>
	<path fill="#FFFFFF" d="M95.962,82.255c0,0,0.157-2.455-0.591-10.076c-0.725-7.657-6.139-11.725-9.667-14.602
		c-3.551-2.874-13.405-4.931-16.291-5.217c-2.889-0.284-8,0.928-10.051,1.326c-2.046,0.367-4.68-0.677-8.192-0.306
		c-2.237,0.226-4.184,3.027-4.184,3.027s-2.099-0.133-3.081,2.5c-0.972,2.678-1.26,3.772-1.533,5.051
		c-0.288,1.231-0.126,4.461,0,5.603c0,0-0.23,3.212,0,6.283c0,0-0.154,1.023-3.071,3.111c2.52-0.109,3.344-1.134,3.344-1.134
		c0.053,0.359,0.063,0.561,0.131,0.884l0.048-0.019c2.432-2.25,4.25-4.743,4.27-4.812l0.268-0.331l2.091,1.712
		c0,0-0.253,0.892,0.04,1.807c0.174,0.569,0.174,1.016,0.174,1.016s0.876-0.328,1.146-1.407c0.242-1.25,0.707-1.614,1.134-1.985
		c0.687-0.563,1.558-0.707,2.616-1.375c0.894-0.448,1.833-2.019,2.101-2.591l0.303-0.65c0,0,1.111,1.624,1.475,2.147
		c0.328-0.376,0.763-1.066,0.985-1.565c0.399-0.956,0.626-2.234,0.846-3.264c0.121-0.7,0.25-1.27,0.351-1.634l0.409-0.968
		c0.482-1.102,1.177-2.634,1.177-4.205c0-0.915-0.25-1.907-0.952-2.76c-1.409-1.716-4.962-1.748-5.003-1.748
		c0,0,3.22-1.265,5.657,1.243c2.412,2.496,0.677,6.017-0.116,7.81l-0.354,0.866c-0.114,0.321-0.212,0.899-0.351,1.528
		c-0.21,1.111-0.467,2.384-0.884,3.431c-0.389,0.99-1.419,2.196-1.465,2.246l-0.348,0.436c0,0-0.909-1.333-1.321-1.923
		c-0.386,0.641-1.053,1.652-1.844,2.164l2.086,3.111c0.424-1.298,0.927-1.672,0.927-1.672c-0.427,1.869-1.21,9.357-1.48,12.133
		c-0.311,2.811,1.109,3.656,1.773,3.921c0.626,0.292,4.076,2.427,5.586,3.76c0.588,0.457,1.03,0.889,1.492,1.023
		c-0.23-0.437-0.462-1.023-0.23-1.423c0.096-0.206,0.306-0.338,0.599-0.394c0.212-0.059,0.485-0.059,0.8,0
		c-0.21-0.279-0.348-0.602-0.348-0.938c0-0.157,0.033-0.294,0.121-0.427c0.255-0.444,0.795-0.456,1.293-0.404
		c-0.235-0.316-0.465-0.675-0.465-1.019l0.066-0.307c0.194-0.431,0.662-0.564,1.093-0.564c-0.533-0.37-1.323-0.529-1.929-0.782
		c-0.773-0.35-3.066-1.611-2.687-2.446c0.369-0.812,1.854-3.812,2.119-4.913c0.821-3.084,2.265-4.21,2.265-4.21
		c-0.593,1.477-0.745,2.374-0.745,2.374c6.046,1.878,10.973,1.273,10.973,1.273c-0.747-2.169,0-2.687,0-2.687
		c0.364,4.459,4.45,8.163,5.5,10.322c1.015,2.135,0.018,6.411-0.535,9.014c-0.157,0.503-0.048,0.894,0.129,1.157
		c0.293-0.422,0.823-1.157,1.404-1.157c0.247,0,0.508,0.164,0.74,0.389c0.146,0.192,0.268,0.443,0.371,0.715
		c0.278-0.46,0.684-0.919,1.25-0.919c0.588,0,0.932,0.487,1.126,0.972c0.212-0.485,0.54-1.013,1.053-1.058
		c0.687-0.053,1.177,0.636,1.427,1.119c0.157-0.202,0.141-0.816-0.038-1.398c-0.497-1.494-0.652-2.961-0.593-4.051
		c0.015-0.893,0.124-2.451,0.712-3.921c0.689-1.677,1.775-2.389,1.455-3.741c-0.253-0.971-0.689-3.928-0.235-5.676
		c0.472-1.768,1.669-7.461,1.669-7.461c1.215,2.715,0.929,9.012,0.929,9.012c-0.258,4.392,1.308,5.893,1.308,5.893
		s0.465-1.695,0.465-3.263C96.677,83.634,95.962,82.255,95.962,82.255 M51.814,64.269c-0.197,0.49-1,1.339-1,1.339
		s-0.502-1.629,0.356-2.456c0.841-0.835,1.864-0.365,1.864-0.365S52.01,63.815,51.814,64.269 M60.948,59.203
		c1.104,2.041-0.553,3.981-0.553,3.981s0.288-2.224-0.081-3.352c-0.265-0.828-1.477-1.594-2.788-1.952
		C57.526,57.88,59.826,57.187,60.948,59.203"/>
	<path fill="#FFFFFF" d="M87.399,99.354c-0.482,0-0.841,0.773-1.061,1.33h1.136h0.717C88.063,100.119,87.792,99.354,87.399,99.354"
		/>
	<path fill="#FFFFFF" d="M85.037,99.204c-0.285,0-0.705,0.519-0.972,0.958c0.439,0.268,1.058,0.412,1.669,0.442
		c0-0.48-0.151-0.972-0.389-1.222L85.037,99.204z"/>
</g>
</svg>
